{
  "source": "C:\\Users\\Peter\\Desktop\\stuff\\MIUN\\quantitative_research\\video_compression\\videos\\BVI-HD\\BVI-HD_CDVL_videos\\ORIG\\PaintingTilting_1920x1080_60fps.mp4",
  "output": "C:\\Users\\Peter\\Desktop\\stuff\\MIUN\\quantitative_research\\video_compression\\compressed_videos\\BVI-HD\\h264\\2\\PaintingTilting_1920x1080_60fps_h264.mp4",
  "codec": "h264",
  "ok": "Input #0, mov,mp4,m4a,3gp,3g2,mj2, from 'C:\\Users\\Peter\\Desktop\\stuff\\MIUN\\quantitative_research\\video_compression\\videos\\BVI-HD\\BVI-HD_CDVL_videos\\ORIG\\PaintingTilting_1920x1080_60fps.mp4':\n  Metadata:\n    major_brand     : isom\n    minor_version   : 512\n    compatible_brands: isomiso2avc1mp41\n    encoder         : Lavf54.28.101\n  Duration: 00:00:05.00, start: 0.000000, bitrate: 667707 kb/s\n  Stream #0:0[0x1](und): Video: h264 (High 4:4:4 Predictive) (avc1 / 0x31637661), yuv420p(progressive), 1920x1080, 667702 kb/s, 60 fps, 60 tbr, 60 tbn (default)\n    Metadata:\n      handler_name    : VideoHandler\n      vendor_id       : [0][0][0][0]\n[out#0/mp4 @ 00000249a4ec9cc0] Codec AVOption b:a (set bitrate (in bits/s)) has not been used for any stream. The most likely reason is either wrong type (e.g. a video option with no video streams) or that it is a private option of some decoder which was not actually used for any stream.\nStream mapping:\n  Stream #0:0 -> #0:0 (h264 (native) -> h264 (libx264))\nPress [q] to stop, [?] for help\n[libx264 @ 00000249a4edbc80] using cpu capabilities: MMX2 SSE2Fast SSSE3 SSE4.2 AVX FMA3 BMI2 AVX2\n[libx264 @ 00000249a4edbc80] profile High, level 5.0, 4:2:0, 8-bit\n[libx264 @ 00000249a4edbc80] 264 - core 165 r3222 b35605a - H.264/MPEG-4 AVC codec - Copyleft 2003-2025 - http://www.videolan.org/x264.html - options: cabac=1 ref=5 deblock=1:0:0 analyse=0x3:0x113 me=hex subme=8 psy=1 psy_rd=1.00:0.00 mixed_ref=1 me_range=16 chroma_me=1 trellis=2 8x8dct=1 cqm=0 deadzone=21,11 fast_pskip=1 chroma_qp_offset=-2 threads=18 lookahead_threads=3 sliced_threads=0 nr=0 decimate=1 interlaced=0 bluray_compat=0 constrained_intra=0 bframes=3 b_pyramid=2 b_adapt=1 b_bias=0 direct=3 weightb=1 open_gop=0 weightp=2 keyint=250 keyint_min=25 scenecut=40 intra_refresh=0 rc_lookahead=50 rc=cbr mbtree=1 bitrate=2000 ratetol=1.0 qcomp=0.60 qpmin=0 qpmax=69 qpstep=4 vbv_maxrate=2000 vbv_bufsize=2000 nal_hrd=none filler=0 ip_ratio=1.40 aq=1:1.00\nOutput #0, mp4, to 'C:\\Users\\Peter\\Desktop\\stuff\\MIUN\\quantitative_research\\video_compression\\compressed_videos\\BVI-HD\\h264\\2\\PaintingTilting_1920x1080_60fps_h264.mp4':\n  Metadata:\n    major_brand     : isom\n    minor_version   : 512\n    compatible_brands: isomiso2avc1mp41\n    encoder         : Lavf62.3.100\n  Stream #0:0(und): Video: h264 (avc1 / 0x31637661), yuv420p(tv, progressive), 1920x1080, q=2-31, 2000 kb/s, 60 fps, 15360 tbn (default)\n    Metadata:\n      encoder         : Lavc62.11.100 libx264\n      handler_name    : VideoHandler\n      vendor_id       : [0][0][0][0]\n    Side data:\n      cpb: bitrate max/min/avg: 2000000/0/2000000 buffer size: 2000000 vbv_delay: N/A\nframe=    0 fps=0.0 q=0.0 size=       0KiB time=N/A bitrate=N/A speed=N/A elapsed=0:00:00.53    \nframe=    0 fps=0.0 q=0.0 size=       0KiB time=N/A bitrate=N/A speed=N/A elapsed=0:00:01.19    \nframe=    0 fps=0.0 q=0.0 size=       0KiB time=N/A bitrate=N/A speed=N/A elapsed=0:00:01.75    \nframe=    0 fps=0.0 q=0.0 size=       0KiB time=N/A bitrate=N/A speed=N/A elapsed=0:00:02.32    \nframe=   27 fps=9.2 q=43.0 size=       0KiB time=00:00:00.33 bitrate=   1.2kbits/s speed=0.114x elapsed=0:00:02.93    \nframe=   56 fps= 16 q=42.0 size=       0KiB time=00:00:00.90 bitrate=   0.4kbits/s speed=0.257x elapsed=0:00:03.50    \nframe=   76 fps= 19 q=42.0 size=       0KiB time=00:00:01.21 bitrate=   0.3kbits/s speed=0.303x elapsed=0:00:04.02    \nframe=  102 fps= 22 q=42.0 size=     256KiB time=00:00:01.60 bitrate=1311.0kbits/s speed=0.347x elapsed=0:00:04.60    \nframe=  123 fps= 24 q=42.0 size=     256KiB time=00:00:01.98 bitrate=1057.6kbits/s speed=0.38x elapsed=0:00:05.21    \nframe=  150 fps= 26 q=41.0 size=     256KiB time=00:00:02.40 bitrate= 874.0kbits/s speed=0.414x elapsed=0:00:05.79    \nframe=  171 fps= 27 q=41.0 size=     256KiB time=00:00:02.81 bitrate= 744.7kbits/s speed=0.441x elapsed=0:00:06.38    \nframe=  196 fps= 28 q=44.0 size=     256KiB time=00:00:03.13 bitrate= 669.4kbits/s speed=0.452x elapsed=0:00:06.92    \nframe=  220 fps= 29 q=43.0 size=     512KiB time=00:00:03.56 bitrate=1176.1kbits/s speed=0.474x elapsed=0:00:07.51    \nframe=  250 fps= 31 q=45.0 size=     512KiB time=00:00:04.13 bitrate=1014.8kbits/s speed=0.512x elapsed=0:00:08.07    \n[mp4 @ 00000249a4eda600] Starting second pass: moving the moov atom to the beginning of the file\n[out#0/mp4 @ 00000249a4ec9cc0] video:806KiB audio:0KiB subtitle:0KiB other streams:0KiB global headers:0KiB muxing overhead: 0.539689%\nframe=  300 fps= 35 q=-1.0 Lsize=     810KiB time=00:00:04.96 bitrate=1336.8kbits/s speed=0.582x elapsed=0:00:08.53    \n[libx264 @ 00000249a4edbc80] frame I:2     Avg QP:40.57  size:121386\n[libx264 @ 00000249a4edbc80] frame P:76    Avg QP:40.02  size:  5966\n[libx264 @ 00000249a4edbc80] frame B:222   Avg QP:46.61  size:   579\n[libx264 @ 00000249a4edbc80] consecutive B-frames:  1.3%  0.0%  0.0% 98.7%\n[libx264 @ 00000249a4edbc80] mb I  I16..4:  0.4% 87.7% 11.8%\n[libx264 @ 00000249a4edbc80] mb P  I16..4:  0.0%  0.5%  0.0%  P16..4: 17.6%  1.9%  1.3%  0.0%  0.0%    skip:78.6%\n[libx264 @ 00000249a4edbc80] mb B  I16..4:  0.0%  0.0%  0.0%  B16..8:  6.2%  0.1%  0.0%  direct: 0.1%  skip:93.5%  L0:18.0% L1:81.6% BI: 0.4%\n[libx264 @ 00000249a4edbc80] 8x8 transform intra:87.8% inter:82.3%\n[libx264 @ 00000249a4edbc80] direct mvs  spatial:95.5% temporal:4.5%\n[libx264 @ 00000249a4edbc80] coded y,uvDC,uvAC intra: 88.0% 85.6% 51.0% inter: 1.1% 2.1% 0.1%\n[libx264 @ 00000249a4edbc80] i16 v,h,dc,p: 63% 12%  9% 16%\n[libx264 @ 00000249a4edbc80] i8 v,h,dc,ddl,ddr,vr,hd,vl,hu: 14%  6%  5%  9% 11% 15% 10% 15% 14%\n[libx264 @ 00000249a4edbc80] i4 v,h,dc,ddl,ddr,vr,hd,vl,hu: 11%  4%  2% 11% 14% 18% 12% 15% 14%\n[libx264 @ 00000249a4edbc80] i8c dc,h,v,p: 53% 14% 19% 14%\n[libx264 @ 00000249a4edbc80] Weighted P-Frames: Y:2.6% UV:0.0%\n[libx264 @ 00000249a4edbc80] ref P L0: 70.6% 26.4%  2.1%  0.4%  0.5%  0.0%\n[libx264 @ 00000249a4edbc80] ref B L0: 99.3%  0.5%  0.1%  0.1%\n[libx264 @ 00000249a4edbc80] ref B L1: 99.9%  0.1%\n[libx264 @ 00000249a4edbc80] kb/s:1319.54\n",
  "seconds": 8.931814908981323,
  "probe_out": {}
}